<?xml version="1.0" encoding="iso-8859-1"?>
<!-- Generator: Adobe Illustrator 22.1.0, SVG Export Plug-In . SVG Version: 6.00 Build 0)  -->
<svg xmlns="http://www.w3.org/2000/svg" xmlns:xlink="http://www.w3.org/1999/xlink" version="1.1" id="Layer_3" x="0px" y="0px" viewBox="0 0 64 64" style="enable-background:new 0 0 64 64;" xml:space="preserve" width="512" height="512">
<g>
	<circle cx="25" cy="14" r="2"/>
	<circle cx="39" cy="14" r="2"/>
	<path d="M31.845,29h0.311c3.367,0,6.628-0.987,9.431-2.855l1.969-1.313l-1.109-1.664l-1.969,1.313   C38.004,26.129,35.126,27,32.155,27h-0.311c-2.971,0-5.849-0.871-8.321-2.519l-1.969-1.313l-1.109,1.664l1.969,1.313   C25.217,28.013,28.478,29,31.845,29z"/>
	<path d="M63,15.01v-0.25c0-2.073-1.688-3.76-3.761-3.76c-1.073,0-2.097,0.46-2.81,1.262l-6.089,6.85   c-0.792-1.723-2.282-3.306-4.408-4.625C45.359,6.273,39.941,1,32,1S18.641,6.273,18.067,14.487   c-2.126,1.318-3.616,2.902-4.408,4.625l-6.089-6.85C6.857,11.46,5.834,11,4.761,11C2.688,11,1,12.687,1,14.76v0.25   c0,0.87,0.305,1.719,0.858,2.391l12.431,15.094l-7.52,3.51C3.567,36.126,1,38.769,1,42c0,3.309,2.691,6,6,6   c3.032,0,5.546-2.261,5.945-5.186L15,42.358v0.5c0,2.76,1.021,5.357,2.865,7.385l-2.814,8.441C15.018,58.786,15,58.893,15,59   c0,2.206,1.794,4,4,4h6c0.379,0,0.725-0.214,0.895-0.553L29.618,55h4.764l3.724,7.447C38.275,62.786,38.621,63,39,63h6   c2.206,0,4-1.794,4-4c0-0.107-0.018-0.214-0.052-0.316l-2.814-8.441C47.979,48.215,49,45.618,49,42.858v-0.5l2.055,0.457   C51.454,45.739,53.968,48,57,48c3.309,0,6-2.691,6-6c0-3.231-2.567-5.874-5.769-5.996l-7.52-3.51L62.143,17.4   C62.695,16.729,63,15.879,63,15.01z M54.376,17.582l3.03,2.424l-1.409,1.711l-3.095-2.476L54.376,17.582z M32,3   c5.179,0,9.018,2.507,10.826,6.791l-4.662-0.777C38.006,8.986,37.839,9,37.684,9.051L32,10.946l-5.684-1.895   C26.162,9,25.995,8.987,25.836,9.014l-4.662,0.777C22.982,5.507,26.821,3,32,3z M20.035,15.116c0.049-1.13,0.206-2.187,0.444-3.182   l5.44-0.906l5.765,1.921C31.786,12.983,31.894,13,32,13s0.214-0.017,0.316-0.051l5.765-1.921l5.44,0.906   c0.238,0.995,0.395,2.051,0.444,3.182c0.015,0.342,0.203,0.652,0.499,0.823c0.397,0.229,0.765,0.469,1.113,0.714l-4.554,1.301   l-2.935-0.979C36.146,16.328,34.124,16,32.079,16h-0.158c-2.045,0-4.066,0.328-6.009,0.975l-2.935,0.979l-4.554-1.301   c0.348-0.245,0.716-0.485,1.113-0.714C19.832,15.768,20.021,15.458,20.035,15.116z M16.638,18.222l6.087,1.739   c0.193,0.055,0.399,0.051,0.591-0.013l3.229-1.076C28.282,18.293,30.091,18,31.921,18h0.158c1.83,0,3.639,0.293,5.376,0.873   l3.229,1.076C40.786,19.983,40.894,20,41,20c0.093,0,0.185-0.013,0.274-0.039l6.087-1.739C48.424,19.405,49,20.69,49,22   c0,3.561-4.227,6.896-10.518,8.3c-0.162,0.036-0.312,0.112-0.438,0.221c-3.736,3.244-8.354,3.244-12.09,0   c-0.125-0.108-0.275-0.185-0.438-0.221C19.227,28.896,15,25.561,15,22C15,20.69,15.576,19.405,16.638,18.222z M47.129,39.893   l0.676-6.081l3.013,1.406l-2.15,5.017L47.129,39.893z M45.165,39.457l-1.456-0.323l-3.233-7.275c0.64-0.182,1.248-0.389,1.84-0.607   l3.576,1.669L45.165,39.457z M46.006,56.179l-7.998,1.6l-0.597-1.195l7.858-2.619L46.006,56.179z M18.732,53.965l7.858,2.619   l-0.597,1.195l-7.998-1.6L18.732,53.965z M15.332,40.235l-2.15-5.017l3.013-1.406l0.676,6.081L15.332,40.235z M18.835,39.457   l-0.726-6.537l3.576-1.669c0.591,0.219,1.2,0.425,1.84,0.607l-3.233,7.275L18.835,39.457z M38.623,32.615l2.529,5.691L37.764,40H33   v-5.054C34.955,34.744,36.869,33.946,38.623,32.615z M31,40h-4.764l-3.389-1.694l2.529-5.691c1.755,1.331,3.668,2.129,5.623,2.33   V40z M21.971,40.279l0.064-0.144l3.518,1.759C25.691,41.964,25.845,42,26,42h5v3.184c-1.161,0.414-2,1.514-2,2.816   c0,0.352,0.072,0.686,0.184,1h-0.022l-8.054-2.685L21.971,40.279z M31,48c0-0.551,0.448-1,1-1s1,0.449,1,1s-0.448,1-1,1   S31,48.551,31,48z M33,45.184V42h5c0.155,0,0.309-0.036,0.447-0.105l3.518-1.759l0.064,0.144l0.862,6.036L34.838,49h-0.022   C34.928,48.686,35,48.352,35,48C35,46.698,34.161,45.598,33,45.184z M11.098,19.241l-3.095,2.476l-1.409-1.711l3.029-2.423   L11.098,19.241z M3,15.01v-0.25C3,13.79,3.79,13,4.761,13c0.502,0,0.981,0.215,1.315,0.591l2.217,2.494l-2.97,2.376l-1.92-2.332   C3.143,15.814,3,15.417,3,15.01z M9.275,23.261l3.154-2.523l0.616,0.693C13.029,21.62,13,21.809,13,22   c0,3.214,2.334,6.146,6.248,8.181l-3.088,1.441L9.275,23.261z M11.783,41.024C11.325,41.125,11,41.531,11,42c0,2.206-1.794,4-4,4   s-4-1.794-4-4s1.794-4,4-4c0.146,0,0.29-0.032,0.423-0.094l3.946-1.841l1.977,4.612L11.783,41.024z M17,42.858v-0.944l2.806-0.623   l-0.784,5.483l-0.407,1.221C17.569,46.497,17,44.722,17,42.858z M24.382,61H19c-1.054,0-1.92-0.819-1.995-1.854l0.352-1.055   l7.709,1.542L24.382,61z M29,53c-0.379,0-0.725,0.214-0.895,0.553l-0.612,1.224l-8.129-2.71l1.267-3.802l8.052,2.684   C28.786,50.983,28.893,51,29,51h6c0.107,0,0.214-0.017,0.316-0.051l8.052-2.684l1.267,3.802l-8.129,2.71l-0.612-1.224   C35.725,53.214,35.379,53,35,53H29z M45,61h-5.382l-0.684-1.367l7.709-1.542l0.352,1.055C46.92,60.181,46.054,61,45,61z M47,42.858   c0,1.864-0.569,3.639-1.615,5.136l-0.407-1.221l-0.784-5.483L47,41.913V42.858z M57,38c2.206,0,4,1.794,4,4s-1.794,4-4,4   s-4-1.794-4-4c0-0.469-0.325-0.875-0.783-0.976l-1.562-0.347l1.977-4.612l3.946,1.841C56.71,37.968,56.854,38,57,38z    M44.752,30.181C48.666,28.146,51,25.214,51,22c0-0.191-0.029-0.38-0.045-0.569l0.616-0.693l3.154,2.523l-6.885,8.361   L44.752,30.181z M61,15.01c0,0.407-0.143,0.805-0.401,1.119l-1.921,2.333l-2.971-2.377l2.217-2.494   C58.258,13.215,58.737,13,59.239,13C60.21,13,61,13.79,61,14.76V15.01z"/>
</g>
</svg>
