<?xml version='1.0' encoding='iso-8859-1'?>
<svg version="1.1" xmlns="http://www.w3.org/2000/svg" viewBox="0 0 470.004 470.004" xmlns:xlink="http://www.w3.org/1999/xlink" enable-background="new 0 0 470.004 470.004">
  <g>
    <path d="m4.983,14.567c10.857,3.872 21.796,7.455 32.807,10.763l26.251,115.744c0.647,2.853 2.894,5.069 5.755,5.677 0.52,0.111 1.042,0.165 1.561,0.165 2.334,0 4.573-1.093 6.006-3.01l71.126-95.151c9.091,1.146 18.213,2.115 27.364,2.897v104.964c0,2.862 1.629,5.474 4.198,6.734 2.57,1.26 5.632,0.948 7.894-0.804l47.058-36.443 47.058,36.443c1.34,1.038 2.96,1.57 4.593,1.57 1.124,0 2.254-0.252 3.301-0.766 2.569-1.26 4.198-3.872 4.198-6.734v-104.964c9.152-0.782 18.274-1.751 27.364-2.897l71.127,95.151c1.434,1.918 3.672,3.01 6.006,3.01 0.519,0 1.041-0.054 1.561-0.165 2.861-0.608 5.107-2.824 5.755-5.677l10.311-45.463c0.916-4.04-1.616-8.057-5.655-8.973-4.04-0.916-8.057,1.615-8.974,5.656l-6.717,29.618-56.445-75.51c26.073-3.952 51.86-9.404 77.277-16.348l-7.48,32.982c-0.916,4.04 1.616,8.057 5.655,8.973 0.559,0.126 1.116,0.187 1.666,0.187 3.425,0 6.518-2.361 7.308-5.843l9.304-41.023c11.011-3.308 21.951-6.891 32.807-10.763 3.901-1.392 5.936-5.682 4.545-9.583-1.393-3.902-5.681-5.938-9.584-4.545-11.496,4.1-23.086,7.874-34.758,11.327-0.97,0.089-1.902,0.364-2.749,0.801-32.041,9.33-64.708,16.224-97.825,20.651-0.538,0.015-1.075,0.083-1.604,0.214-12.323,1.617-24.708,2.898-37.146,3.832-16.892,1.267-33.858,1.904-50.899,1.904s-34.007-0.637-50.876-1.902c-12.461-0.935-24.846-2.216-37.169-3.834-0.529-0.132-1.067-0.2-1.604-0.215-33.115-4.427-65.78-11.321-97.819-20.65-0.85-0.439-1.785-0.716-2.76-0.804-11.672-3.451-23.259-7.225-34.753-11.324-3.903-1.393-8.192,0.644-9.584,4.545s0.643,8.192 4.545,9.583zm70.094,107.345l-20.834-91.857c25.417,6.943 51.205,12.396 77.278,16.348l-56.444,75.509zm204.075-69.142v88.552l-39.558-30.635c-2.703-2.094-6.48-2.094-9.184,0l-39.558,30.635v-88.552c14.653,0.931 29.374,1.398 44.149,1.398s29.498-0.467 44.151-1.398z"/>
    <path d="m459.983,153.384c-11.499,4.101-23.091,7.875-34.766,11.329-0.289,0.027-0.579,0.066-0.869,0.128-0.66,0.14-1.277,0.371-1.851,0.664-32.047,9.332-64.72,16.228-97.844,20.657-0.445,0.013-0.895,0.06-1.346,0.156-0.062,0.013-0.121,0.034-0.183,0.049-12.249,1.609-24.559,2.885-36.922,3.818-0.031,0.002-0.061,0.005-0.091,0.007-16.946,1.277-33.989,1.92-51.108,1.92-17.119,0-34.163-0.644-51.109-1.92-0.03-0.002-0.06-0.005-0.09-0.007-12.363-0.933-24.672-2.209-36.922-3.818-0.062-0.015-0.12-0.035-0.183-0.049-0.448-0.095-0.895-0.141-1.337-0.155-33.127-4.429-65.803-11.325-97.854-20.658-0.574-0.293-1.19-0.524-1.851-0.664-0.29-0.062-0.579-0.101-0.867-0.128-11.676-3.454-23.269-7.229-34.769-11.33-3.903-1.394-8.192,0.643-9.584,4.545-1.391,3.901 0.644,8.192 4.545,9.583 10.036,3.579 20.144,6.909 30.312,10.007l-21.795,102.543c-0.595,2.799 0.455,5.693 2.706,7.46 2.253,1.767 5.313,2.099 7.889,0.854l53.606-25.862 38.452,45.431c1.444,1.707 3.55,2.655 5.725,2.655 0.608,0 1.224-0.075 1.83-0.227 2.775-0.698 4.911-2.915 5.506-5.714l21.818-102.646c9.087,1.111 18.206,2.041 27.353,2.789l49.809,107.903c1.226,2.656 3.885,4.356 6.81,4.356s5.584-1.701 6.81-4.356l49.808-107.904c9.148-0.748 18.266-1.678 27.353-2.789l21.819,102.647c0.595,2.799 2.73,5.016 5.506,5.714 0.607,0.153 1.221,0.227 1.83,0.227 2.175,0 4.28-0.949 5.725-2.655l38.452-45.431 53.605,25.863c2.577,1.244 5.638,0.912 7.889-0.854s3.301-4.661 2.706-7.46l-21.796-102.543c10.169-3.098 20.276-6.428 30.312-10.007 3.901-1.392 5.936-5.682 4.545-9.583-1.393-3.902-5.681-5.939-9.584-4.545zm-342.263,133.195l-32.323-38.19c-2.209-2.61-5.903-3.396-8.983-1.91l-45.063,21.741 18.381-86.478c28.366,7.959 57.2,14.059 86.386,18.28l-18.398,86.557zm117.282,5.086l-39.552-85.683c13.134,0.747 26.321,1.13 39.552,1.13s26.418-0.383 39.552-1.13l-39.552,85.683zm203.652-23.445l-45.062-21.741c-3.079-1.486-6.773-0.7-8.983,1.91l-32.323,38.19-18.399-86.557c29.186-4.22 58.019-10.32 86.386-18.279l18.381,86.477z"/>
    <path d="m459.983,306.328c-11.497,4.1-23.087,7.874-34.76,11.328-0.969,0.089-1.899,0.364-2.744,0.799-32.044,9.331-64.713,16.225-97.833,20.652-0.534,0.015-1.068,0.083-1.593,0.213-12.325,1.618-24.711,2.899-37.151,3.832-16.892,1.267-33.858,1.904-50.899,1.904s-34.007-0.637-50.876-1.902c-12.463-0.935-24.849-2.217-37.174-3.834-0.525-0.131-1.06-0.198-1.594-0.213-33.117-4.427-65.784-11.321-97.825-20.65-0.849-0.438-1.784-0.715-2.758-0.803-11.671-3.453-23.259-7.226-34.753-11.325-3.903-1.394-8.192,0.644-9.584,4.545-1.391,3.901 0.644,8.192 4.545,9.583 10.857,3.872 21.797,7.455 32.808,10.763l26.251,115.744c0.647,2.853 2.894,5.069 5.755,5.677 0.52,0.111 1.042,0.165 1.561,0.165 2.334,0 4.573-1.093 6.006-3.01l71.126-95.151c9.09,1.145 18.212,2.115 27.364,2.897v34.02c0,4.142 3.357,7.5 7.5,7.5s7.5-3.358 7.5-7.5v-32.902c14.653,0.931 29.374,1.398 44.149,1.398s29.497-0.467 44.149-1.398v88.552l-39.558-30.635c-2.703-2.094-6.48-2.094-9.184,0l-39.558,30.635v-25.65c0-4.142-3.357-7.5-7.5-7.5s-7.5,3.358-7.5,7.5v40.944c0,2.862 1.629,5.474 4.198,6.734 2.57,1.26 5.632,0.948 7.894-0.804l47.058-36.443 47.058,36.443c1.34,1.038 2.96,1.57 4.593,1.57 1.124,0 2.254-0.252 3.301-0.766 2.569-1.26 4.198-3.872 4.198-6.734v-104.967c9.152-0.782 18.273-1.751 27.364-2.897l71.127,95.151c1.434,1.918 3.672,3.01 6.006,3.01 0.519,0 1.041-0.054 1.561-0.165 2.861-0.608 5.107-2.824 5.755-5.677l26.25-115.744c11.011-3.308 21.951-6.891 32.807-10.763 3.901-1.392 5.936-5.682 4.545-9.583-1.394-3.9-5.682-5.938-9.585-4.543zm-384.906,121.472l-20.833-91.857c25.417,6.943 51.205,12.396 77.278,16.347l-56.445,75.51zm319.852,0l-56.445-75.51c26.073-3.952 51.86-9.404 77.278-16.348l-20.833,91.858z"/>
  </g>
</svg>
