<?xml version='1.0' encoding='iso-8859-1'?>
<svg version="1.1" xmlns="http://www.w3.org/2000/svg" viewBox="0 0 470 470" xmlns:xlink="http://www.w3.org/1999/xlink" enable-background="new 0 0 470 470">
  <g>
    <path d="m244.326,258.18c-1.399,3.937-5.147,6.581-9.326,6.581s-7.927-2.645-9.326-6.581c-1.387-3.903-5.674-5.941-9.579-4.555-3.902,1.388-5.941,5.676-4.554,9.579 3.521,9.903 12.948,16.557 23.459,16.557s19.938-6.654 23.459-16.557c1.388-3.903-0.651-8.191-4.554-9.579-3.904-1.387-8.192,0.651-9.579,4.555z"/>
    <path d="m208.607,213.665h-17.5c-4.143,0-7.5,3.358-7.5,7.5s3.357,7.5 7.5,7.5h10.427c1.029,2.913 3.808,5 7.073,5 4.143,0 7.5-3.358 7.5-7.5v-5c0-4.142-3.357-7.5-7.5-7.5z"/>
    <path d="m261.393,233.665c3.266,0 6.044-2.087 7.073-5h10.427c4.143,0 7.5-3.358 7.5-7.5s-3.357-7.5-7.5-7.5h-17.5c-4.143,0-7.5,3.358-7.5,7.5v5c2.84217e-14,4.142 3.357,7.5 7.5,7.5z"/>
    <path d="m428.637,74.5v-23.077c0-4.142-3.357-7.5-7.5-7.5h-79.581c-4.143,0-7.5,3.358-7.5,7.5v22.5h-8.087l-16.128-29.03c-5.286-9.516-17.955-16.97-28.841-16.97h-92c-10.886,0-23.555,7.454-28.842,16.97l-16.127,29.03h-95.168c-26.943,0-48.863,21.921-48.863,48.864v270.426c0,26.943 21.92,48.864 48.863,48.864h372.273c26.943,0 48.863-21.92 48.863-48.864v-270.426c0.001-24.393-17.967-44.668-41.362-48.287zm-79.581-15.577h64.581v15h-64.581v-15zm105.944,334.29c0,18.672-15.191,33.864-33.863,33.864h-372.274c-18.672,0-33.863-15.192-33.863-33.864v-270.426c0-18.672 15.191-33.864 33.863-33.864h99.581c2.724,0 5.233-1.477 6.557-3.858l18.27-32.887c2.691-4.844 10.188-9.255 15.729-9.255h92c5.541,0 13.038,4.411 15.729,9.254l18.271,32.888c1.323,2.381 3.833,3.858 6.557,3.858h99.581c18.672,0 33.863,15.191 33.863,33.864v270.426z"/>
    <path d="m179.12,87.98c1.154,0.641 2.403,0.945 3.636,0.945 2.636,0 5.192-1.392 6.563-3.859l6.745-12.143h77.871l6.745,12.142c2.013,3.622 6.581,4.925 10.199,2.914 3.62-2.012 4.925-6.578 2.914-10.198l-8.889-16c-1.323-2.381-3.833-3.858-6.557-3.858h-86.697c-2.724,0-5.233,1.477-6.557,3.858l-8.889,16c-2.009,3.621-0.704,8.188 2.916,10.199z"/>
    <path d="m421.137,103.923h-38.637c-10.225,0-18.863,8.639-18.863,18.864v27.272c0,10.225 8.639,18.864 18.863,18.864h38.637c10.225,0 18.863-8.639 18.863-18.864v-27.272c0-10.225-8.639-18.864-18.863-18.864zm3.863,46.137c0,2.022-1.842,3.864-3.863,3.864h-38.637c-2.021,0-3.863-1.842-3.863-3.864v-27.272c0-2.022 1.842-3.864 3.863-3.864h38.637c2.021,0 3.863,1.842 3.863,3.864v27.272z"/>
    <path d="m96.167,283.704h20.468c15.773,50.363 62.869,87.009 118.365,87.009 68.374,0 124-55.626 124-124s-55.626-124-124-124c-58.745,0-108.079,41.062-120.81,95.991h-18.023c-17.921,0-32.5,14.58-32.5,32.5s14.579,32.5 32.5,32.5zm138.833-145.991c60.103,0 109,48.897 109,109s-48.897,109-109,109-109-48.897-109-109 48.897-109 109-109zm-138.833,95.991h15.514c-0.448,4.277-0.681,8.616-0.681,13.009 0,7.503 0.671,14.852 1.953,21.991h-16.786c-9.649,0-17.5-7.851-17.5-17.5s7.851-17.5 17.5-17.5z"/>
    <path d="m88.444,58.923h30c4.143,0 7.5-3.358 7.5-7.5s-3.357-7.5-7.5-7.5h-30c-4.143,0-7.5,3.358-7.5,7.5s3.358,7.5 7.5,7.5z"/>
    <path d="m158.043,300.632c2.381,3.389 7.059,4.207 10.448,1.825 3.39-2.381 4.206-7.059 1.825-10.448-9.366-13.332-14.316-28.995-14.316-45.296 0-43.561 35.439-79 79-79s79,35.439 79,79-35.439,79-79,79c-16.302,0-31.965-4.951-45.296-14.316-3.39-2.381-8.066-1.564-10.448,1.825-2.381,3.39-1.564,8.067 1.825,10.448 15.87,11.15 34.515,17.043 53.919,17.043 51.832,0 94-42.168 94-94s-42.168-94-94-94-94,42.168-94,94c0,19.404 5.894,38.049 17.043,53.919z"/>
    <path d="m432.5,385.713h-395c-4.143,0-7.5,3.358-7.5,7.5s3.357,7.5 7.5,7.5h395c4.143,0 7.5-3.358 7.5-7.5s-3.357-7.5-7.5-7.5z"/>
  </g>
</svg>
