<svg height="512pt" viewBox="0 -29 512.00102 512" width="512pt" xmlns="http://www.w3.org/2000/svg"><path d="m462.890625 391.640625c0 33.945313-27.515625 61.464844-61.460937 61.464844-33.945313 0-61.464844-27.519531-61.464844-61.464844s27.519531-61.460937 61.464844-61.460937c33.945312 0 61.460937 27.515624 61.460937 61.460937zm0 0" fill="#3c3f4d"/><path d="m401.429688 418.046875c-14.5625 0-26.410157-11.84375-26.410157-26.40625 0-14.558594 11.847657-26.40625 26.410157-26.40625s26.40625 11.847656 26.40625 26.40625c0 14.5625-11.84375 26.40625-26.40625 26.40625zm0 0" fill="#e6e6e6"/><path d="m261.699219 74.144531h-235.4375v212.023438l235.4375 18.195312zm0 0" fill="#ffe14d"/><path d="m26.261719 135.277344h235.4375v24.351562h-235.4375zm0 0" fill="#ffbe1d"/><g fill="#ff491f"><path d="m173.246094 74.144531c0-16.164062-13.101563-29.265625-29.265625-29.265625-16.164063 0-29.265625 13.101563-29.265625 29.265625"/><path d="m82.867188 0c20.472656 0 37.070312 16.597656 37.070312 37.074219v37.070312h-37.070312c-20.476563 0-37.074219-16.597656-37.074219-37.070312 0-20.476563 16.597656-37.074219 37.074219-37.074219zm0 0"/><path d="m205.09375 0c-20.472656 0-37.070312 16.597656-37.070312 37.074219v37.070312h37.070312c20.476562 0 37.074219-16.597656 37.074219-37.070312 0-20.476563-16.597657-37.074219-37.074219-37.074219zm0 0"/><path d="m114.714844 74.144531h58.53125v212.023438h-58.53125zm0 0"/></g><path d="m168.234375 391.640625c0 33.945313-27.519531 61.464844-61.464844 61.464844-33.945312 0-61.460937-27.519531-61.460937-61.464844s27.515625-61.460937 61.460937-61.460937c33.945313 0 61.464844 27.515624 61.464844 61.460937zm0 0" fill="#3c3f4d"/><path d="m313.472656 286.167969h-313.472656v105.472656h29.050781c0-42.921875 34.796875-77.714844 77.71875-77.714844s77.714844 34.792969 77.714844 77.714844h109.554687zm0 0" fill="#e6e6e6"/><path d="m294.039062 286.167969v-165.832031c0-12.023438 9.746094-21.769532 21.769532-21.769532h115.703125c19.941406 0 37.828125 12.269532 45.003906 30.875l33.625 87.175782c1.230469 3.1875 1.859375 6.574218 1.859375 9.992187v165.03125h-32.851562c0-42.921875-34.796876-77.714844-77.71875-77.714844-42.921876 0-77.714844 34.792969-77.714844 77.714844h-29.675782" fill="#2c92bf"/><path d="m106.769531 418.046875c-14.5625 0-26.410156-11.84375-26.410156-26.40625 0-14.558594 11.847656-26.40625 26.410156-26.40625s26.40625 11.847656 26.40625 26.40625c0 14.5625-11.84375 26.40625-26.40625 26.40625zm0 0" fill="#e6e6e6"/><path d="m477.347656 221.441406h-150.96875v-90.542968h105.128906c6.53125 0 12.492188 4.09375 14.839844 10.183593zm0 0" fill="#c4e2f2"/><path d="m264.128906 333h-54.972656c-4.328125 0-7.835938-3.507812-7.835938-7.835938 0-4.328124 3.507813-7.839843 7.835938-7.839843h54.972656c4.328125 0 7.835938 3.511719 7.835938 7.839843 0 4.328126-3.507813 7.835938-7.835938 7.835938zm0 0" fill="#ccc"/><path d="m264.128906 360.484375h-54.972656c-4.328125 0-7.835938-3.507813-7.835938-7.835937 0-4.328126 3.507813-7.835938 7.835938-7.835938h54.972656c4.328125 0 7.835938 3.507812 7.835938 7.835938 0 4.328124-3.507813 7.835937-7.835938 7.835937zm0 0" fill="#ccc"/><path d="m359.515625 260.050781h-33.136719c-4.328125 0-7.835937-3.507812-7.835937-7.835937s3.507812-7.835938 7.835937-7.835938h33.136719c4.328125 0 7.835937 3.507813 7.835937 7.835938s-3.507812 7.835937-7.835937 7.835937zm0 0" fill="#3c3f4d"/></svg>